# xmcd
#
# Track frame offsets:
#	150
#	11133
#	25550
#	40036
#	53641
#	64961
#	79268
#	94980
#	109126
#	121469
#	132020
#	149664
#
# Disc length: 2140 seconds
# Revision: 0
# Processed by: cddbd v1.5.2PL0 Copyright (c) Steve Scherf et al.
# Submitted via: dBpowerAMP V12.0
#
DISCID=a3085a0c
DTITLE=Mountain Faith - Blue
DYEAR=2014
DGENRE=Country
TTITLE0=Feelin' Blue
TTITLE1=My Heart Skips a Beat
TTITLE2=Each Passing Day
TTITLE3=City Lights
TTITLE4=If You Are Ever Down in Dallas
TTITLE5=Long As the River Runs
TTITLE6=Never Out of His Mind
TTITLE7=Madam
TTITLE8=Long Lonesome Road
TTITLE9=Don't Get Above Your Raisin'
TTITLE10=The Soldier Song
TTITLE11=Headed For a City
EXTD=
EXTT0=
EXTT1=
EXTT2=
EXTT3=
EXTT4=
EXTT5=
EXTT6=
EXTT7=
EXTT8=
EXTT9=
EXTT10=
EXTT11=
PLAYORDER=
